<svg id="Layer_1" data-name="Layer 1" xmlns="http://www.w3.org/2000/svg" viewBox="0 0 1092 219.93"><defs><style>.cls-1{fill:#ffbe00;}.cls-2{fill:#afb92d;}.cls-3{fill:#78b437;}.cls-4{fill:#2c375a;}.cls-5{fill:#3e265b;}.cls-6{fill:#004c99;}.cls-7{fill:#323737;}</style></defs><title>bouwcenter</title><rect class="cls-1" x="27.93" y="108.71" width="49.82" height="99.64" transform="translate(-96.62 83.8) rotate(-45)"/><rect class="cls-2" x="80.78" y="116.01" width="49.82" height="49.82" transform="translate(-68.69 116.01) rotate(-45)"/><rect class="cls-3" x="116.01" y="80.78" width="49.82" height="49.82" transform="translate(-33.46 130.6) rotate(-45)"/><rect class="cls-4" x="80.78" y="45.55" width="49.82" height="49.82" transform="translate(-18.87 95.37) rotate(-45)"/><rect class="cls-5" x="45.55" y="80.78" width="49.82" height="49.82" transform="translate(-54.09 80.77) rotate(-45)"/><rect class="cls-6" x="3.02" y="27.93" width="99.64" height="49.82" transform="translate(-21.89 52.84) rotate(-45)"/><path class="cls-7" d="M198.56,140.86v-71h26q10.85,0,17.41,4.8t6.56,13.77a18.59,18.59,0,0,1-2.14,8.68,15.73,15.73,0,0,1-5.94,6.4v.19a14.52,14.52,0,0,1,8.66,6.21,18.14,18.14,0,0,1,2.82,9.8q0,10.82-7.69,16t-19.42,5.17Zm17.36-43.5h9a5.76,5.76,0,0,0,4.66-1.89,7,7,0,0,0,1.6-4.66,6,6,0,0,0-1.65-4.36,6.53,6.53,0,0,0-4.9-1.7h-8.68Zm0,28.61h10.43a7.25,7.25,0,0,0,5.58-2.13,7.49,7.49,0,0,0,2-5.31,7.36,7.36,0,0,0-1.89-5.21,7.18,7.18,0,0,0-5.53-2H215.93Z"/><path class="cls-7" d="M278.5,104.93A34.84,34.84,0,0,1,289.1,79.1q10.59-10.45,26.55-10.45t26.55,10.43q10.59,10.43,10.6,25.85,0,15.81-10.6,26.48t-26.55,10.67q-16,0-26.55-10.67T278.5,104.93Zm18,0a21.62,21.62,0,0,0,5.57,15.13,18.19,18.19,0,0,0,27.2,0,21.68,21.68,0,0,0,5.55-15.13,20.31,20.31,0,0,0-5.55-14.5,18.69,18.69,0,0,0-27.2,0A20.26,20.26,0,0,0,296.5,104.93Z"/><path class="cls-7" d="M383,114.72V69.86h17.36v44.86q0,5.48,3.32,8.46t9,3q5.67,0,9-3t3.32-8.46V69.86h17.36v44.86q0,12.12-8.15,19.74t-21.44,7.61q-13.38,0-21.58-7.61T383,114.72Z"/><path class="cls-7" d="M471.12,69.86h18L498,114.24a42.49,42.49,0,0,1,.92,7.47h.19a37.78,37.78,0,0,1,1.17-7.47l11-44.38h14l10.63,44.38q.48,2,.8,3.83t.41,2.72v.92h.19a37.52,37.52,0,0,1,.92-7.47l9.71-44.38h18l-18,71H528.58L519.65,105l-1.41-8.34H518a52.17,52.17,0,0,1-1.41,8.34l-8.93,35.84H488.11Z"/><path class="cls-7" d="M590.69,105.22q0-15.62,10.65-26.09T628,68.65a41.89,41.89,0,0,1,9.46,1,33.69,33.69,0,0,1,7.49,2.55q3,1.5,5.29,2.93a19.5,19.5,0,0,1,3.37,2.5l1,1-8,13.09q-.87-.77-2.47-2a36.52,36.52,0,0,0-6.28-3.23,22.62,22.62,0,0,0-9-2q-9.65,0-14.86,6a21,21,0,0,0-5.21,14.31,22.5,22.5,0,0,0,5.38,14.94q5.38,6.4,14.7,6.4a22.45,22.45,0,0,0,9.48-2.18,26.08,26.08,0,0,0,7-4.37l2.38-2.18,9,12.71a17.11,17.11,0,0,1-1.19,1.29,39.12,39.12,0,0,1-3.54,2.84,36.71,36.71,0,0,1-13.82,6.5A39,39,0,0,1,628,142.08q-16.49,0-26.89-10.43T590.69,105.22Z"/><path class="cls-7" d="M686.39,140.86v-71h44.52V84.75H703.75v12.9h21.68v14.89H703.75V126h28.52v14.89Z"/><path class="cls-7" d="M764.15,140.86v-71h17.6L801.39,103q1.21,2.09,2.69,5.12t2.35,5l.92,2h.19q-.78-7.66-.78-12.12V69.86h17.36v71H806.68l-19.79-33.08q-1.21-2.08-2.69-5.12t-2.35-5l-.92-2h-.19q.77,7.66.78,12.12v33.08Z"/><path class="cls-7" d="M852.24,84.75V69.86h60.48V84.75H891.18v56.11H873.82V84.75Z"/><path class="cls-7" d="M940.81,140.86v-71h44.52V84.75H958.17v12.9h21.68v14.89H958.17V126h28.52v14.89Z"/><path class="cls-7" d="M1018.57,140.86v-71h24.87q9.51,0,13.9,1.65a19.65,19.65,0,0,1,9.68,7.71,23.15,23.15,0,0,1,3.49,12.95,24.31,24.31,0,0,1-2.84,11.4,17.93,17.93,0,0,1-8,8v.19a47.94,47.94,0,0,1,2.67,4.27l13.82,24.83h-19.45l-12.68-24h-8.15v24ZM1035.93,102h7.57a9.2,9.2,0,0,0,6.64-2.28,8.52,8.52,0,0,0,2.38-6.45q0-4.36-2.28-6.45t-8.44-2.09h-5.87Z"/><path class="cls-7" d="M622.74,180.35s-.64,3.5-1.34,6.13l-7.82,28.9h-4.85l-10.63-41h4.2l7.94,31.88c.53,2.1.93,4.38.93,4.38h.12c.06,0,.35-2.28.93-4.38l8.64-31.87h3.85l8.64,31.88c.58,2.1.88,4.38.93,4.38h.12s.41-2.28.93-4.38l8.23-31.87h4.2l-10.92,41H632l-7.82-28.9c-.7-2.63-1.34-6.13-1.34-6.13Z"/><path class="cls-7" d="M666.06,185.31c8.12,0,12.26,6.25,12.26,13.54,0,.7-.12,2-.12,2H655.67c.18,7.53,5.31,11.62,11.38,11.62A13.65,13.65,0,0,0,676,209l1.81,3a16.83,16.83,0,0,1-10.86,4.09c-8.76,0-15.35-6.3-15.35-15.35C651.58,191.09,658.12,185.31,666.06,185.31Zm8.23,12.32c-.23-6.13-4-9-8.35-9-4.9,0-9.17,3.09-10.1,9Z"/><path class="cls-7" d="M698.34,185.31c8.12,0,12.26,6.25,12.26,13.54,0,.7-.12,2-.12,2H688c.18,7.53,5.31,11.62,11.38,11.62a13.65,13.65,0,0,0,8.93-3.56l1.81,3a16.84,16.84,0,0,1-10.86,4.09c-8.76,0-15.35-6.3-15.35-15.35C683.87,191.09,690.41,185.31,698.34,185.31Zm8.23,12.32c-.23-6.13-4-9-8.35-9-4.9,0-9.17,3.09-10.1,9Z"/><path class="cls-7" d="M719.3,189.69h-3.85v-3.33h3.91V177.9h3.91v8.47h7.36v3.33h-7.36v14.6c0,6.89,4.38,7.76,6.6,7.76a6.85,6.85,0,0,0,1.34-.12v3.56a10.48,10.48,0,0,1-1.69.12c-3.39,0-10.22-1.11-10.22-10.92Z"/><path class="cls-7" d="M753.46,174.34h4v15.88c0,1.34-.12,2.39-.12,2.39h.12a12.58,12.58,0,0,1,11.68-7.3c7.24,0,9.81,4.14,9.81,11.38v18.68h-4V197.75c0-4.61-.7-8.7-6.36-8.7a11.15,11.15,0,0,0-10.68,8.35,13.86,13.86,0,0,0-.47,3.91v14.07h-4Z"/><path class="cls-7" d="M801.44,185.31a15.38,15.38,0,1,1-15.53,15.24A15.2,15.2,0,0,1,801.44,185.31Zm0,27.21c6.3,0,11.44-5.14,11.44-12a11.44,11.44,0,1,0-22.88,0C790,207.38,795.14,212.52,801.44,212.52Z"/><path class="cls-7" d="M836.82,185.31c8.12,0,12.26,6.25,12.26,13.54,0,.7-.12,2-.12,2H826.43c.18,7.53,5.31,11.62,11.38,11.62a13.65,13.65,0,0,0,8.93-3.56l1.81,3a16.83,16.83,0,0,1-10.86,4.09c-8.76,0-15.35-6.3-15.35-15.35C822.34,191.09,828.88,185.31,836.82,185.31Zm8.23,12.32c-.23-6.13-4-9-8.35-9-4.9,0-9.17,3.09-10.1,9Z"/><path class="cls-7" d="M874.18,173.81h3.15l-2.28,10h-4.2Z"/><path class="cls-7" d="M886,189.69h-3.85v-3.33h3.91V177.9H890v8.47h7.36v3.33H890v14.6c0,6.89,4.38,7.76,6.6,7.76a6.85,6.85,0,0,0,1.34-.12v3.56a10.48,10.48,0,0,1-1.69.12c-3.39,0-10.22-1.11-10.22-10.92Z"/><path class="cls-7" d="M916.39,186h4.2l7.12,21.89c.47,1.4.88,3.15.88,3.15h.12s.41-1.75.88-3.15l7.24-21.78h3.91L948,207.9c.47,1.4.88,3.15.88,3.15H949s.41-1.69.88-3.15L957,186h4.2l-9.92,29.37h-4.32l-7.18-20.9c-.53-1.46-.93-3.15-.93-3.15h-.12s-.41,1.69-.88,3.15l-7.18,20.9h-4.32Z"/><path class="cls-7" d="M979.38,185.31c8.12,0,12.26,6.25,12.26,13.54,0,.7-.12,2-.12,2H969c.18,7.53,5.31,11.62,11.38,11.62a13.65,13.65,0,0,0,8.93-3.56l1.81,3a16.84,16.84,0,0,1-10.86,4.09c-8.76,0-15.35-6.3-15.35-15.35C964.91,191.09,971.44,185.31,979.38,185.31Zm8.23,12.32c-.23-6.13-4-9-8.35-9-4.9,0-9.17,3.09-10.1,9Z"/><path class="cls-7" d="M999.23,186h3.91v5.2c0,1.28-.12,2.33-.12,2.33h.12c1.4-4.44,4.67-7.82,9.28-7.82a8,8,0,0,1,1.58.17v3.91a10,10,0,0,0-1.46-.12c-4.14,0-7.24,3.27-8.52,7.59a19.36,19.36,0,0,0-.82,5.72v12.38h-4Z"/><path class="cls-7" d="M1020,174.34h4v22.88h4.67l8.82-11.21h4.79L1032,198.8v.12l11.21,16.46h-4.73l-9.81-14.71H1024v14.71h-4Z"/><path class="cls-7" d="M1050.43,189.69h-3.85v-3.33h3.91V177.9h3.91v8.47h7.36v3.33h-7.36v14.6c0,6.89,4.38,7.76,6.6,7.76a6.85,6.85,0,0,0,1.34-.12v3.56a10.48,10.48,0,0,1-1.69.12c-3.39,0-10.22-1.11-10.22-10.92Z"/><path class="cls-7" d="M1070.87,210.88h4.5v4.5h-4.5Zm.12-36.55h4.09l-.17,30.3h-3.74Z"/></svg>